# xmcd
#
# Track frame offsets: 
#        150
#        14006
#        27101
#        43315
#        62098
#        77854
#        91442
#        103282
#        115418
#        135248
#        153522
#        168531
#        181222
#        195552
#        208173
#        234923
#
# Disc length: 3141 seconds
#
# Revision: 0
# Processed by: cddbd v1.5.2PL0 Copyright (c) Steve Scherf et al.
# Submitted via: ExactAudioCopy v0.95b4
#
DISCID=dc0c4310
DTITLE=Various Artist - SC7518s
DYEAR=1900
DGENRE=Karaoke
TTITLE0=Tony Bennett - I Left My Heart in San Francisco
TTITLE1=Eddy Arnold - Make the World Go Away
TTITLE2=Frank Sinatra - New York, New York
TTITLE3=Morris Albert - Feelings
TTITLE4=Engelbert Humperdinck - Release Me
TTITLE5=Nat King Cole - Ramblin' Rose
TTITLE6=Perry Como - Catch a Falling Star
TTITLE7=Andy Williams - Can't Get Used to Losing You
TTITLE8=Ray Charles - I Can't Stop Loving You
TTITLE9=Engelbert Humperdinck - After the Lovin'
TTITLE10=Etta James - At Last
TTITLE11=Wayne Newton - Danke Schoen
TTITLE12=Frank Sinatra - Summer Wind
TTITLE13=Dean Martin - Everybody Loves Somebody
TTITLE14=Ray Charles - Let's Go Get Stoned
TTITLE15=Data - Data
EXTD=
EXTT0=
EXTT1=
EXTT2=
EXTT3=
EXTT4=
EXTT5=
EXTT6=
EXTT7=
EXTT8=
EXTT9=
EXTT10=
EXTT11=
EXTT12=
EXTT13=
EXTT14=
EXTT15=
PLAYORDER=
